# xmcd CD database file
#
# Track frame offsets:
#	150
#	11882
#	27600
#	39337
#
# Disc length: 731 seconds
#
# Revision: 4
# Processed by: cddbd v1.5.2PL0 Copyright (c) Steve Scherf et al.
# Submitted via: CDex 1.70beta3
#
DISCID=2c02d904
DTITLE=ロリベーダースZ（水橋かおり、町井美紀、上村貴子、田村ゆかり） - 「G-onらいだーす」エンディングテーマ『ミラクル☆パジャマ』
DYEAR=2002
DGENRE=Anime(J)
TTITLE0=ミラクル☆パジャマ
TTITLE1=倉田雅世/トキメイテ、G-on! ヤヨイ・ソロ ver.
TTITLE2=津田直士/ミラクル☆パジャマ　original Karaoke
TTITLE3=津田直士/トキメイテ、G-on! ヤヨイ・ソロ ver. original Karaoke　
EXTD=YEAR: 2002
EXTT0=
EXTT1=
EXTT2=
EXTT3=
PLAYORDER=
